<svg version="1" xmlns="http://www.w3.org/2000/svg" width="1145.333" height="1145.333" viewBox="0 0 859.000000 859.000000"><path d="M81 185.6c-10.5 2.8-17.6 6.9-25.4 14.6-7.5 7.4-10.2 11.7-13.8 21.8-2.6 7.1-3.2 21.9-1.1 29.8 3.7 14.3 14.5 28.3 27.5 35.6 29 16.2 67.6.9 78.3-30.8 4.1-12.5 2.6-32-3.3-43-6.6-12.2-19.7-23.5-31.6-27.2-7.1-2.2-23.7-2.7-30.6-.8zM386.8 266.5c-.2.1-4.3.5-9.3.8-4.9.4-12.8 1.3-17.5 2.1-4.7.8-9.8 1.7-11.5 1.9-13.1 2.1-18.5 3.2-32.3 6.8-16.9 4.3-18.4 4.7-31.2 9.2-43.3 15.1-84 38.8-116.4 68.1-16.9 15.1-41 40.2-49.6 51.6-1.9 2.5-3.7 4.7-4.1 5-1 .8-15.1 20.8-21.6 30.5-13.7 20.7-28.7 47.8-37.7 68.5-2.1 4.7-4.9 10.9-6.2 13.8-1.3 2.9-2.4 5.5-2.4 5.8 0 .3-.6 2-1.4 3.7-2 4.4-10.9 28.7-13.6 37.2-1.2 3.8-2.5 7.7-2.8 8.5-.3.8-.6 1.9-.8 2.5-.1.5-1.3 5-2.6 10-1.3 4.9-2.4 10.1-2.4 11.5.1 2.3.5 2.5 6.6 3.1 12.1 1 176.8.5 177.9-.6.7-.7-1.3-4.1-6-10.4-54.7-73.5-36-177.9 41.1-228.7 17-11.2 43.7-21.3 64-24 9.7-1.4 31.5-1.9 37-1 1.4.3 5.2.7 8.5 1.1 7.1.8 26 5.5 33.3 8.4 10.3 4.1 20.9 9.5 30.2 15.5 11.1 7.1 12.6 8.3 24.4 19.6 46 44.1 60.7 113 37 173.2-4.5 11.4-12.3 25.3-20.1 35.9-5.4 7.4-7.2 10.6-6 11 .1 0 86.3.3 191.5.5 136.3.4 191.7.2 192.7-.6 1.5-1.3-1.2-10.8-9.3-31.8-18.1-47.1-38.2-86.5-62.5-122.5-8.5-12.6-26.6-37.1-28.6-38.7-.4-.3-1.7-1.9-3-3.5-8.9-11.7-37.4-40.1-54.1-54-41.7-34.7-86.5-58.6-138.6-74.1-13.5-4-35.4-9-47.9-10.9-2.7-.5-5.4-.9-6-1.1-1.7-.4-8.8-1.3-14.5-1.9-3-.3-7.3-.8-9.5-1.1-4.2-.5-74.2-1.3-74.7-.9zM19 649.7V674h821l.1-4.8c0-4.8 0-35.3-.1-40.8v-3H19v24.3z"/></svg>